<svg xmlns="http://www.w3.org/2000/svg" xmlns:xlink="http://www.w3.org/1999/xlink" width="500" zoomAndPan="magnify" viewBox="0 0 375 149.999998" height="200" preserveAspectRatio="xMidYMid meet" version="1.0"><defs><g/></defs><rect x="-37.5" width="450" fill="#ffffff" y="-15" height="179.999997" fill-opacity="1"/><rect x="-37.5" width="450" fill="#314528" y="-15" height="179.999997" fill-opacity="1"/><g fill="#ffffff" fill-opacity="1"><g transform="translate(115.847791, 104.948334)"><g><path d="M 33.421875 -64.59375 C 42.015625 -64.59375 49.472656 -61.484375 55.796875 -55.265625 C 62.117188 -49.054688 65.28125 -41.351562 65.28125 -32.15625 C 65.28125 -22.957031 62.257812 -15.125 56.21875 -8.65625 C 50.1875 -2.1875 42.757812 1.046875 33.9375 1.046875 C 25.125 1.046875 17.625 -2.144531 11.4375 -8.53125 C 5.257812 -14.914062 2.171875 -22.519531 2.171875 -31.34375 C 2.171875 -36.15625 3.039062 -40.664062 4.78125 -44.875 C 6.53125 -49.082031 8.851562 -52.609375 11.75 -55.453125 C 14.65625 -58.296875 17.992188 -60.53125 21.765625 -62.15625 C 25.535156 -63.78125 29.421875 -64.59375 33.421875 -64.59375 Z M 17.578125 -31.765625 C 17.578125 -26.609375 19.242188 -22.414062 22.578125 -19.1875 C 25.921875 -15.96875 29.648438 -14.359375 33.765625 -14.359375 C 37.890625 -14.359375 41.601562 -15.925781 44.90625 -19.0625 C 48.21875 -22.195312 49.875 -26.40625 49.875 -31.6875 C 49.875 -36.96875 48.207031 -41.203125 44.875 -44.390625 C 41.539062 -47.585938 37.8125 -49.1875 33.6875 -49.1875 C 29.5625 -49.1875 25.84375 -47.570312 22.53125 -44.34375 C 19.226562 -41.125 17.578125 -36.929688 17.578125 -31.765625 Z M 17.578125 -31.765625 "/></g></g></g><g fill="#ffffff" fill-opacity="1"><g transform="translate(183.301, 104.948334)"><g><path d="M 33.421875 -64.59375 C 42.015625 -64.59375 49.472656 -61.484375 55.796875 -55.265625 C 62.117188 -49.054688 65.28125 -41.351562 65.28125 -32.15625 C 65.28125 -22.957031 62.257812 -15.125 56.21875 -8.65625 C 50.1875 -2.1875 42.757812 1.046875 33.9375 1.046875 C 25.125 1.046875 17.625 -2.144531 11.4375 -8.53125 C 5.257812 -14.914062 2.171875 -22.519531 2.171875 -31.34375 C 2.171875 -36.15625 3.039062 -40.664062 4.78125 -44.875 C 6.53125 -49.082031 8.851562 -52.609375 11.75 -55.453125 C 14.65625 -58.296875 17.992188 -60.53125 21.765625 -62.15625 C 25.535156 -63.78125 29.421875 -64.59375 33.421875 -64.59375 Z M 17.578125 -31.765625 C 17.578125 -26.609375 19.242188 -22.414062 22.578125 -19.1875 C 25.921875 -15.96875 29.648438 -14.359375 33.765625 -14.359375 C 37.890625 -14.359375 41.601562 -15.925781 44.90625 -19.0625 C 48.21875 -22.195312 49.875 -26.40625 49.875 -31.6875 C 49.875 -36.96875 48.207031 -41.203125 44.875 -44.390625 C 41.539062 -47.585938 37.8125 -49.1875 33.6875 -49.1875 C 29.5625 -49.1875 25.84375 -47.570312 22.53125 -44.34375 C 19.226562 -41.125 17.578125 -36.929688 17.578125 -31.765625 Z M 17.578125 -31.765625 "/></g></g></g><g fill="#ffffff" fill-opacity="1"><g transform="translate(250.754209, 104.948334)"><g><path d="M 45.703125 -63.8125 C 47.035156 -63.8125 48.035156 -63.765625 48.703125 -63.671875 C 49.367188 -63.585938 50.125 -63.3125 50.96875 -62.84375 C 51.8125 -62.382812 52.40625 -61.601562 52.75 -60.5 C 53.09375 -59.394531 53.265625 -57.910156 53.265625 -56.046875 C 53.265625 -54.191406 53.09375 -52.710938 52.75 -51.609375 C 52.40625 -50.515625 51.796875 -49.75 50.921875 -49.3125 C 50.046875 -48.875 49.273438 -48.609375 48.609375 -48.515625 C 47.941406 -48.429688 46.914062 -48.390625 45.53125 -48.390625 L 18.890625 -48.390625 L 18.890625 -39.609375 L 36.03125 -39.609375 C 37.425781 -39.609375 38.457031 -39.5625 39.125 -39.46875 C 39.789062 -39.382812 40.5625 -39.113281 41.4375 -38.65625 C 42.945312 -37.78125 43.703125 -35.484375 43.703125 -31.765625 C 43.703125 -27.703125 42.597656 -25.296875 40.390625 -24.546875 C 39.460938 -24.253906 37.984375 -24.109375 35.953125 -24.109375 L 18.890625 -24.109375 L 18.890625 -7.65625 C 18.890625 -6.269531 18.84375 -5.253906 18.75 -4.609375 C 18.664062 -3.972656 18.394531 -3.21875 17.9375 -2.34375 C 17.125 -0.78125 14.859375 0 11.140625 0 C 7.078125 0 4.695312 -1.101562 4 -3.3125 C 3.65625 -4.238281 3.484375 -5.71875 3.484375 -7.75 L 3.484375 -56.140625 C 3.484375 -59.097656 4.035156 -61.113281 5.140625 -62.1875 C 6.242188 -63.269531 8.332031 -63.8125 11.40625 -63.8125 Z M 45.703125 -63.8125 "/></g></g></g><g fill="#ffffff" fill-opacity="1"><g transform="translate(52.752038, 106.190771)"><g><path d="M 45.171875 -61.453125 C 45.753906 -62.378906 46.597656 -63.015625 47.703125 -63.359375 C 48.804688 -63.710938 50.179688 -63.890625 51.828125 -63.890625 C 53.484375 -63.890625 54.804688 -63.742188 55.796875 -63.453125 C 56.785156 -63.160156 57.539062 -62.8125 58.0625 -62.40625 C 58.582031 -62 58.957031 -61.390625 59.1875 -60.578125 C 59.539062 -59.597656 59.71875 -58.09375 59.71875 -56.0625 L 59.71875 -29.765625 C 59.71875 -22.109375 57.335938 -15.144531 52.578125 -8.875 C 50.253906 -5.914062 47.265625 -3.519531 43.609375 -1.6875 C 39.953125 0.132812 35.90625 1.046875 31.46875 1.046875 C 27.03125 1.046875 22.992188 0.117188 19.359375 -1.734375 C 15.734375 -3.597656 12.789062 -6.035156 10.53125 -9.046875 C 5.832031 -15.203125 3.484375 -22.164062 3.484375 -29.9375 L 3.484375 -56.140625 C 3.484375 -57.535156 3.523438 -58.566406 3.609375 -59.234375 C 3.703125 -59.898438 3.976562 -60.664062 4.4375 -61.53125 C 4.90625 -62.40625 5.6875 -63.015625 6.78125 -63.359375 C 7.882812 -63.710938 9.363281 -63.890625 11.21875 -63.890625 C 13.082031 -63.890625 14.566406 -63.710938 15.671875 -63.359375 C 16.773438 -63.015625 17.53125 -62.410156 17.9375 -61.546875 C 18.625 -60.210938 18.96875 -58.382812 18.96875 -56.0625 L 18.96875 -29.9375 C 18.96875 -26.40625 19.84375 -23.039062 21.59375 -19.84375 C 22.457031 -18.21875 23.757812 -16.910156 25.5 -15.921875 C 27.238281 -14.941406 29.300781 -14.453125 31.6875 -14.453125 C 35.925781 -14.453125 39.085938 -16.015625 41.171875 -19.140625 C 43.265625 -22.273438 44.3125 -25.90625 44.3125 -30.03125 L 44.3125 -56.671875 C 44.3125 -58.929688 44.597656 -60.523438 45.171875 -61.453125 Z M 45.171875 -61.453125 "/></g></g></g><g fill="#ffffff" fill-opacity="1"><g transform="translate(8.34874, 106.190771)"><g><path d="M 45.171875 -61.453125 C 45.753906 -62.378906 46.597656 -63.015625 47.703125 -63.359375 C 48.804688 -63.710938 50.179688 -63.890625 51.828125 -63.890625 C 53.484375 -63.890625 54.804688 -63.742188 55.796875 -63.453125 C 56.785156 -63.160156 57.539062 -62.8125 58.0625 -62.40625 C 58.582031 -62 58.957031 -61.390625 59.1875 -60.578125 C 59.539062 -59.597656 59.71875 -58.09375 59.71875 -56.0625 L 59.71875 -29.765625 C 59.71875 -22.109375 57.335938 -15.144531 52.578125 -8.875 C 50.253906 -5.914062 47.265625 -3.519531 43.609375 -1.6875 C 39.953125 0.132812 35.90625 1.046875 31.46875 1.046875 C 27.03125 1.046875 22.992188 0.117188 19.359375 -1.734375 C 15.734375 -3.597656 12.789062 -6.035156 10.53125 -9.046875 C 5.832031 -15.203125 3.484375 -22.164062 3.484375 -29.9375 L 3.484375 -56.140625 C 3.484375 -57.535156 3.523438 -58.566406 3.609375 -59.234375 C 3.703125 -59.898438 3.976562 -60.664062 4.4375 -61.53125 C 4.90625 -62.40625 5.6875 -63.015625 6.78125 -63.359375 C 7.882812 -63.710938 9.363281 -63.890625 11.21875 -63.890625 C 13.082031 -63.890625 14.566406 -63.710938 15.671875 -63.359375 C 16.773438 -63.015625 17.53125 -62.410156 17.9375 -61.546875 C 18.625 -60.210938 18.96875 -58.382812 18.96875 -56.0625 L 18.96875 -29.9375 C 18.96875 -26.40625 19.84375 -23.039062 21.59375 -19.84375 C 22.457031 -18.21875 23.757812 -16.910156 25.5 -15.921875 C 27.238281 -14.941406 29.300781 -14.453125 31.6875 -14.453125 C 35.925781 -14.453125 39.085938 -16.015625 41.171875 -19.140625 C 43.265625 -22.273438 44.3125 -25.90625 44.3125 -30.03125 L 44.3125 -56.671875 C 44.3125 -58.929688 44.597656 -60.523438 45.171875 -61.453125 Z M 45.171875 -61.453125 "/></g></g></g><g fill="#ffffff" fill-opacity="1"><g transform="translate(296.289374, 105.658697)"><g><path d="M 27.46875 -16.359375 C 27.46875 -14.304688 26.957031 -12.785156 25.9375 -11.796875 C 24.914062 -10.816406 23.789062 -10.328125 22.5625 -10.328125 L 10.671875 -10.328125 C 10.671875 -9.390625 11.222656 -8.601562 12.328125 -7.96875 C 13.429688 -7.332031 14.535156 -7.015625 15.640625 -7.015625 C 17.578125 -7.015625 19.097656 -7.21875 20.203125 -7.625 L 20.75 -7.8125 C 21.550781 -8.1875 22.21875 -8.375 22.75 -8.375 C 23.820312 -8.375 24.742188 -7.617188 25.515625 -6.109375 C 25.953125 -5.210938 26.171875 -4.445312 26.171875 -3.8125 C 26.171875 -0.832031 22.609375 0.65625 15.484375 0.65625 C 13.015625 0.65625 10.816406 0.226562 8.890625 -0.625 C 6.972656 -1.476562 5.476562 -2.609375 4.40625 -4.015625 C 2.300781 -6.710938 1.25 -9.734375 1.25 -13.078125 C 1.25 -17.285156 2.609375 -20.648438 5.328125 -23.171875 C 8.054688 -25.703125 11.457031 -26.96875 15.53125 -26.96875 C 20.175781 -26.96875 23.585938 -25.332031 25.765625 -22.0625 C 26.898438 -20.320312 27.46875 -18.421875 27.46875 -16.359375 Z M 16.890625 -14.890625 C 18.160156 -14.890625 18.796875 -15.421875 18.796875 -16.484375 C 18.796875 -17.253906 18.503906 -17.875 17.921875 -18.34375 C 17.335938 -18.8125 16.5 -19.046875 15.40625 -19.046875 C 14.320312 -19.046875 13.242188 -18.601562 12.171875 -17.71875 C 11.109375 -16.832031 10.578125 -15.890625 10.578125 -14.890625 Z M 16.890625 -14.890625 "/></g></g></g><g fill="#ffffff" fill-opacity="1"><g transform="translate(328.923137, 105.658697)"><g><path d="M 19.953125 -26.109375 C 20.585938 -25.910156 21.113281 -25.566406 21.53125 -25.078125 C 21.945312 -24.597656 22.15625 -23.820312 22.15625 -22.75 C 22.15625 -21.6875 21.835938 -20.519531 21.203125 -19.25 C 20.566406 -17.976562 19.648438 -17.34375 18.453125 -17.34375 C 17.847656 -17.34375 17.269531 -17.472656 16.71875 -17.734375 C 16.164062 -18.003906 15.4375 -18.140625 14.53125 -18.140625 C 13.632812 -18.140625 12.789062 -17.820312 12 -17.1875 C 11.21875 -16.550781 10.828125 -15.785156 10.828125 -14.890625 L 10.828125 -4.359375 C 10.828125 -3.585938 10.800781 -3.007812 10.75 -2.625 C 10.695312 -2.25 10.539062 -1.804688 10.28125 -1.296875 C 9.78125 -0.429688 8.472656 0 6.359375 0 C 4.753906 0 3.601562 -0.285156 2.90625 -0.859375 C 2.375 -1.316406 2.070312 -2.03125 2 -3 C 2 -3.34375 2 -3.832031 2 -4.46875 L 2 -22.0625 C 2 -22.820312 2.023438 -23.394531 2.078125 -23.78125 C 2.128906 -24.164062 2.269531 -24.59375 2.5 -25.0625 C 2.96875 -25.96875 4.273438 -26.421875 6.421875 -26.421875 C 8.421875 -26.421875 9.671875 -26.035156 10.171875 -25.265625 C 10.546875 -24.734375 10.734375 -24.179688 10.734375 -23.609375 C 10.898438 -23.835938 11.140625 -24.117188 11.453125 -24.453125 C 11.773438 -24.796875 12.453125 -25.25 13.484375 -25.8125 C 14.515625 -26.382812 15.421875 -26.671875 16.203125 -26.671875 C 16.992188 -26.671875 17.65625 -26.628906 18.1875 -26.546875 C 18.726562 -26.460938 19.316406 -26.316406 19.953125 -26.109375 Z M 19.953125 -26.109375 "/></g></g></g></svg>